PathFileType	4	(X/Y/Z)	OpenSim_Sub05_CSStiffKnee_Magnet.trc
DataRate	CameraRate	NumFrames	NumMarkers	Units	OrigDataRate	OrigDataStartFrame	OrigNumFrames
100	100	26	8	m	100	2813	11248
Frame#	Time	torso_imu_offset_imu	pelvis_imu_offset_imu	tibia_r_imu_offset_imu	femur_r_imu_offset_imu	tibia_l_imu_offset_imu	femur_l_imu_offset_imu	toes_r_imu_offset_imu	toes_l_imu_offset_imu
				X1	Y1	Z1	X2	Y2	Z2	X3	Y3	Z3	X4	Y4	Z4	X5	Y5	Z5	X6	Y6	Z6	X7	Y7	Z7	X8		Y8	Z8	

2813	28.12000000	-0.90758850	-0.11506788	0.20321236	-0.67141849	0.20339093	-0.65031158	-0.43210643	-0.68387931	-0.14855997	-0.74123931	-0.44874737	0.06668277	-0.73664532	0.28470586	0.19352632	-0.61897090	0.18806543	0.20318322	-0.77799639	-0.14283883	-0.14258060	-0.56780987	-0.27343409	-0.49808630
2814	28.13000000	-0.90933563	-0.11321315	0.19715103	-0.66821295	0.20787555	-0.64561125	-0.42243548	-0.68812999	-0.15425599	-0.73507783	-0.44796091	0.05879525	-0.73994503	0.28309353	0.20162378	-0.61743285	0.18441193	0.20595855	-0.77468041	-0.14635321	-0.13474620	-0.56233315	-0.27363690	-0.50347468
2815	28.14000000	-0.90913933	-0.10999625	0.19672089	-0.67342934	0.21513774	-0.63928179	-0.41898503	-0.68881399	-0.15744981	-0.73797389	-0.44916612	0.05088959	-0.73609957	0.28342226	0.19696894	-0.61933359	0.17777221	0.20787894	-0.77910560	-0.15163147	-0.12602386	-0.56685901	-0.27166721	-0.49906411
2816	28.15000000	-0.90845203	-0.11290709	0.18927352	-0.67462931	0.21767562	-0.63615920	-0.40836742	-0.69583656	-0.15896814	-0.74299013	-0.45166186	0.04334203	-0.73643117	0.29113469	0.19604583	-0.61735805	0.17639984	0.21130569	-0.78077208	-0.15752191	-0.11875897	-0.57361117	-0.27329864	-0.49236599
2817	28.16000000	-0.91191629	-0.11614003	0.18912865	-0.67193617	0.22006866	-0.62702552	-0.39725117	-0.70365241	-0.16175749	-0.73626310	-0.45240780	0.04072717	-0.74008136	0.29813211	0.20314310	-0.61661620	0.18193793	0.20870744	-0.78139895	-0.15868103	-0.11231925	-0.57470144	-0.26804296	-0.49100529
2818	28.17000000	-0.90985392	-0.11906666	0.19047251	-0.67729763	0.22776275	-0.62771160	-0.38910204	-0.70851706	-0.15997588	-0.73584596	-0.45282069	0.02989566	-0.73067402	0.30143249	0.20616653	-0.61560866	0.17848970	0.20981530	-0.78360273	-0.16164447	-0.10008391	-0.58702558	-0.26195226	-0.48041033
2819	28.18000000	-0.90814001	-0.12344307	0.18435657	-0.67713033	0.23038997	-0.62674658	-0.37367206	-0.71325535	-0.15680436	-0.73835192	-0.45014856	0.02261545	-0.72021930	0.30897392	0.21267203	-0.61382017	0.17587852	0.21457324	-0.78658036	-0.16791697	-0.07978275	-0.59645373	-0.26044063	-0.46366414
2820	28.19000000	-0.91028428	-0.12837105	0.17729470	-0.67344482	0.23080398	-0.62278019	-0.36181472	-0.72169442	-0.15744706	-0.74070713	-0.44849005	0.02112491	-0.71352414	0.32165083	0.21975935	-0.61569580	0.18482835	0.21378200	-0.79053382	-0.17031990	-0.06198796	-0.60723938	-0.26024935	-0.44941649
2821	28.20000000	-0.90821213	-0.12936835	0.18111051	-0.67755202	0.23384422	-0.61968265	-0.34056732	-0.73248420	-0.15600389	-0.74834308	-0.44482448	0.01107978	-0.71218375	0.32739801	0.22048793	-0.60931001	0.18804919	0.22049178	-0.78926085	-0.17427306	-0.03963677	-0.61490848	-0.25584310	-0.44341216
2822	28.21000000	-0.90852834	-0.13396941	0.17748563	-0.67680310	0.23320065	-0.61553123	-0.32459100	-0.73502501	-0.15957862	-0.75225017	-0.43572353	0.00440972	-0.71068899	0.33210549	0.22351655	-0.60929566	0.19310189	0.22727951	-0.79070490	-0.18193660	-0.00834596	-0.62129755	-0.25476849	-0.43214750
2823	28.22000000	-0.90832890	-0.13922662	0.16967470	-0.66986307	0.23996968	-0.61533682	-0.31446869	-0.74105012	-0.15770812	-0.75587175	-0.42678329	-0.00235166	-0.70473428	0.34131039	0.22922673	-0.60997099	0.19548800	0.23284541	-0.79087094	-0.18410203	0.02474299	-0.62872231	-0.25016858	-0.42327310
2824	28.23000000	-0.90709944	-0.14481610	0.17481969	-0.67612423	0.24411525	-0.61376598	-0.29113288	-0.75963477	-0.15377116	-0.76558444	-0.41570845	-0.01242797	-0.69861525	0.34455294	0.23338689	-0.60652100	0.19407572	0.22906245	-0.78845760	-0.18785552	0.06202263	-0.63401609	-0.24483183	-0.41681349
2825	28.24000000	-0.90421982	-0.14845084	0.17419717	-0.67535415	0.23876758	-0.61365265	-0.26810203	-0.76938945	-0.14807535	-0.77410698	-0.40031429	-0.02169686	-0.69669560	0.34984349	0.23657944	-0.60758988	0.19871198	0.22642327	-0.78570841	-0.19637250	0.10591900	-0.64005472	-0.25365747	-0.41069584
2826	28.25000000	-0.90451801	-0.15472029	0.17300637	-0.67916143	0.23932131	-0.60752692	-0.24516323	-0.76763370	-0.13866242	-0.78303814	-0.37997827	-0.02566199	-0.69032008	0.35867149	0.23820234	-0.60688599	0.19997912	0.22809972	-0.77857962	-0.20808236	0.15550649	-0.64240530	-0.25408867	-0.40076230
2827	28.26000000	-0.90489302	-0.16409288	0.16642987	-0.68319424	0.24095918	-0.60601828	-0.22881603	-0.77417900	-0.12796171	-0.79222645	-0.36050414	-0.02696107	-0.68633968	0.36311329	0.24658395	-0.60893780	0.19659066	0.22262937	-0.76394473	-0.22032218	0.19973028	-0.64756423	-0.25113871	-0.39357285
2828	28.27000000	-0.90019405	-0.16983342	0.16505680	-0.68144511	0.23132148	-0.61082497	-0.20788978	-0.78713717	-0.11050637	-0.79976394	-0.34084615	-0.03785096	-0.68272718	0.37030297	0.25495385	-0.60720156	0.19706850	0.22430994	-0.74788671	-0.23359653	0.23639903	-0.65109705	-0.25139737	-0.39252956
2829	28.28000000	-0.89941916	-0.17610530	0.17324944	-0.68437906	0.22688427	-0.60302671	-0.18672435	-0.79620480	-0.08812270	-0.80855154	-0.32078712	-0.04401744	-0.67494283	0.37637970	0.25667290	-0.60577833	0.19827096	0.22937438	-0.73205844	-0.24714670	0.27312961	-0.65200684	-0.25306858	-0.38955042
2830	28.29000000	-0.89958943	-0.18363700	0.17356080	-0.68632378	0.23013082	-0.60374645	-0.16587880	-0.79672062	-0.06757907	-0.82006453	-0.29635201	-0.05576427	-0.67130324	0.38470698	0.26107866	-0.59975075	0.19929968	0.23368054	-0.71621541	-0.25828442	0.30996879	-0.65173098	-0.25189483	-0.38893175
2831	28.30000000	-0.89745623	-0.19188394	0.17276048	-0.68943631	0.23247544	-0.60808587	-0.14533506	-0.79987097	-0.05107502	-0.82467407	-0.27212384	-0.06938311	-0.66770585	0.39064013	0.26569107	-0.60056530	0.20057334	0.23849047	-0.70019904	-0.26750537	0.33819210	-0.65250449	-0.24832485	-0.38748659
2832	28.31000000	-0.89187139	-0.20190237	0.17177429	-0.68743285	0.23153755	-0.60258219	-0.12881845	-0.80509612	-0.03558562	-0.83091480	-0.25141350	-0.07539543	-0.66666062	0.39126637	0.26721981	-0.60251068	0.20104108	0.24146385	-0.68544269	-0.27347111	0.35786105	-0.65728693	-0.24455177	-0.38756665
2833	28.32000000	-0.89058771	-0.20924633	0.17236862	-0.68653379	0.22702435	-0.60173324	-0.11414189	-0.80491055	-0.02701088	-0.83527899	-0.23372704	-0.07712416	-0.66018868	0.39765838	0.27034881	-0.59943761	0.20503957	0.23739601	-0.67976471	-0.27606257	0.36369445	-0.65746680	-0.24398730	-0.38869157
2834	28.33000000	-0.89328265	-0.21450044	0.17192550	-0.68480760	0.22095991	-0.60260810	-0.10238898	-0.80802581	-0.02327210	-0.83331211	-0.21211695	-0.08326930	-0.65501815	0.40387287	0.27342620	-0.59840249	0.20752988	0.23903812	-0.67932785	-0.27187597	0.36006151	-0.66011201	-0.24314976	-0.39043107
2835	28.34000000	-0.89416195	-0.21885441	0.16797663	-0.68489194	0.21927449	-0.60487100	-0.09574894	-0.80716285	-0.02659911	-0.84306969	-0.19347090	-0.08827052	-0.65022086	0.41217478	0.26811915	-0.59972655	0.20647766	0.25029952	-0.68010075	-0.26900341	0.36482388	-0.66198403	-0.24761364	-0.38839267
2836	28.35000000	-0.88633266	-0.22902115	0.17420334	-0.68527413	0.21935587	-0.60785203	-0.09631263	-0.80093892	-0.03655898	-0.85202639	-0.17830481	-0.08644361	-0.65016593	0.41807164	0.27271771	-0.59412270	0.20929487	0.25497179	-0.68431451	-0.26636840	0.35923298	-0.65719088	-0.24899841	-0.38903702
2837	28.36000000	-0.88451240	-0.24674410	0.17344702	-0.68338640	0.22047167	-0.60767302	-0.10133840	-0.80387259	-0.04640310	-0.85914787	-0.15675497	-0.09448816	-0.64819468	0.41859103	0.27656902	-0.59022029	0.21171385	0.25181793	-0.69232159	-0.26095024	0.34506544	-0.66283284	-0.24531470	-0.38794862
2838	28.37000000	-0.88283836	-0.25113481	0.16746996	-0.68545901	0.22221296	-0.60668939	-0.11884864	-0.80309133	-0.05691299	-0.86244662	-0.14175867	-0.09398262	-0.64175987	0.41830625	0.27515097	-0.59223763	0.21213098	0.25472685	-0.69996224	-0.25501463	0.32611852	-0.66358251	-0.24685604	-0.38479211
